<svg id="icon-meeting" xmlns="http://www.w3.org/2000/svg" width="59.926" height="60" viewBox="0 0 59.926 60">
  <rect id="Rectangle_90" data-name="Rectangle 90" width="59.926" height="59.926" fill="#0288d1" opacity="0"/>
  <path id="Path_79" data-name="Path 79" d="M48.512,13.9a6.948,6.948,0,1,0-6.948-6.948A6.948,6.948,0,0,0,48.512,13.9ZM45.1,6.947a3.409,3.409,0,1,1,3.408,3.411A3.4,3.4,0,0,1,45.1,6.947Z" transform="translate(-10.405 0.073)" fill="#0288d1"/>
  <path id="Path_80" data-name="Path 80" d="M18.683,48.451A6.948,6.948,0,1,0,11.735,41.5a6.949,6.949,0,0,0,6.948,6.948Zm-3.408-6.957A3.409,3.409,0,1,1,18.683,44.9a3.409,3.409,0,0,1-3.409-3.409Z" transform="translate(-2.92 -8.598)" fill="#0288d1"/>
  <path id="Path_81" data-name="Path 81" d="M58.713,36.924a3.161,3.161,0,0,0-2.732-1.573H52.813a29.23,29.23,0,0,0,0-8.456v-.075A9.1,9.1,0,0,0,44.3,19.014l-.371.016-.04-.006-.057.019-.044-.005-.24.086a.157.157,0,0,0-.05.023l-.079.029a.571.571,0,0,0-.082.047.334.334,0,0,0-.045.025l-.075.043a.683.683,0,0,0-.075.058l-4.7,3.939-4.521-3.835a.432.432,0,0,0-.091-.07L33.71,19.3a.575.575,0,0,0-.1-.058.933.933,0,0,0-.166-.082L33.27,19.1a1.077,1.077,0,0,0-.135-.037l-.075-.016-.031-.005-.238-.028h-.169a9.1,9.1,0,0,0-8.488,7.825,30.021,30.021,0,0,0,.091,9.42,3.151,3.151,0,0,0,3.106,2.629H50.468a1.8,1.8,0,0,0,.433,0h4.415L42.494,61.158H30.532a29.732,29.732,0,0,0-.057-8.4v-.075a9.1,9.1,0,0,0-8.512-7.8h-.214a.674.674,0,0,0-.1.008.431.431,0,0,0-.173.034l-.485.048V45.1l-.023.013-.049.016-.024-.008-4.77,4.014-4.494-3.847-.14-.132a.962.962,0,0,0-.2-.107c-.029-.015-.059-.028-.08-.038l-.192-.067a.716.716,0,0,0-.119-.028l-.084-.013-.075-.013a.524.524,0,0,0-.064-.009l-.021-.01h-.264A9.1,9.1,0,0,0,1.9,52.7,29.625,29.625,0,0,0,2,62.051,3.146,3.146,0,0,0,5.1,64.68h23.14a2.045,2.045,0,0,0,.234.018,1.225,1.225,0,0,0,.2-.016h14.1a3.156,3.156,0,0,0,2.682-1.494L58.764,40.06l.049-.094v-.01a3.244,3.244,0,0,0-.1-3.032Zm-9.4-9.606a26,26,0,0,1-.075,8.005H47.023l.131-6.108a1.5,1.5,0,0,0-.422-1.087,1.522,1.522,0,0,0-2.622,1.019l-.133,6.175H32.9l-.179-6.185a1.5,1.5,0,0,0-.472-1.059,1.573,1.573,0,0,0-1.093-.421,1.525,1.525,0,0,0-1.479,1.566l.178,6.1H27.67a26.529,26.529,0,0,1-.022-8.027A5.564,5.564,0,0,1,32.2,22.608l5.112,4.336.4.287h.088c.021.007.048.015.085.023h0l.193.049.037.005.125.022a1.066,1.066,0,0,0,.339,0,.449.449,0,0,0,.138-.02l.046-.007.225-.054h0l.175-.028.064-.064a.607.607,0,0,0,.075-.043l.127-.08a.734.734,0,0,0,.15-.11l5.169-4.338a5.564,5.564,0,0,1,4.557,4.727ZM23.421,53.189a1.545,1.545,0,0,0-1.557,1.49l-.14,6.471H10.593l-.141-6.473a1.523,1.523,0,0,0-.476-1.072A1.5,1.5,0,0,0,8.9,53.189a1.526,1.526,0,0,0-1.066.47,1.5,1.5,0,0,0-.422,1.085l.14,6.406H5.414a26.143,26.143,0,0,1-.021-7.964A5.492,5.492,0,0,1,9.92,48.492l5.047,4.327.109.083a1.407,1.407,0,0,0,.142.085l.211.118.049.008a.051.051,0,0,0,.024.005l.117.044.142.025c.012,0,.025,0,.04.006l.124.022a1.067,1.067,0,0,0,.331,0,.435.435,0,0,0,.136-.021l.046-.007.225-.049a.761.761,0,0,0,.1-.034l.075-.031a1.268,1.268,0,0,0,.194-.1l.075-.049c.026-.013.055-.031.049-.033l5.27-4.41a5.565,5.565,0,0,1,4.56,4.726,26.368,26.368,0,0,1-.007,7.94H24.769l.141-6.4A1.525,1.525,0,0,0,23.421,53.189ZM11.162,45.4Z" transform="translate(-0.371 -4.698)" fill="#0288d1"/>
</svg>
