<svg id="icon-laptop-entry" xmlns="http://www.w3.org/2000/svg" width="60" height="59.702" viewBox="0 0 60 59.702">
  <rect id="Rectangle_94" data-name="Rectangle 94" width="59.702" height="59.702" transform="translate(0.146)" fill="#0288d1" opacity="0"/>
  <path id="Path_95" data-name="Path 95" d="M45.695,21H24.981a3.3,3.3,0,0,0-3.358,3.229V38.666A3.3,3.3,0,0,0,24.981,41.9H45.695a3.3,3.3,0,0,0,3.358-3.229V24.229A3.3,3.3,0,0,0,45.695,21Zm-1.607,3-8.75,7.411L26.589,24Zm1.959,14.7a.373.373,0,0,1-.351.194H24.981a.381.381,0,0,1-.349-.181l-.009-.049V26.426l9.147,7.723a1.2,1.2,0,0,0,.776.284h1.582a1.194,1.194,0,0,0,.776-.284l9.148-7.725Z" transform="translate(-5.34 -5.328)" fill="#0288d1"/>
  <path id="Path_96" data-name="Path 96" d="M59.532,57.525h-.005c-.058-.149-.364-.809-1.932-4.193l-4.44-9.583V16.067a3.647,3.647,0,0,0-3.648-3.647h-4.78a.746.746,0,0,0-.746.746v2.3a.746.746,0,0,0,.746.746h4.631V42.267H10.249V16.216h4.627a.746.746,0,0,0,.746-.746v-2.3a.746.746,0,0,0-.746-.746H10.1a3.647,3.647,0,0,0-3.647,3.648V43.749L.116,57.414a3.909,3.909,0,0,0,3.6,5.439H55.74a4.066,4.066,0,0,0,3.284-1.577,3.861,3.861,0,0,0,.509-3.752ZM23.991,59.057l1.146-3.666H34.47l1.146,3.666Zm31.988-.044a.113.113,0,0,1-.092.044H39.594l-1.916-6.129A1.888,1.888,0,0,0,35.866,51.6H23.741a1.888,1.888,0,0,0-1.811,1.332l-1.917,6.13H3.715a.109.109,0,0,1-.091-.044.149.149,0,0,1-.03-.075l5.97-12.875h40.48L56,58.917a.113.113,0,0,1-.02.1Z" transform="translate(0.196 -3.151)" fill="#0288d1"/>
  <path id="Path_97" data-name="Path 97" d="M46.438,12.281a1.758,1.758,0,0,0,0-2.486L36.792.15a.544.544,0,0,0-.746,0L26.4,9.8a1.758,1.758,0,0,0,0,2.485h0a1.757,1.757,0,0,0,2.486,0L34.662,6.5V17.111a.513.513,0,0,0,.531.493h2.454a.513.513,0,0,0,.531-.493V6.5l5.776,5.776a1.758,1.758,0,0,0,2.485,0Z" transform="translate(-6.421 0)" fill="#0288d1"/>
</svg>
